<?xml version="1.0" encoding="UTF-8"?>
<svg width="62.5" height="48" version="1.1" viewBox="0 0 62.5 48" xmlns="http://www.w3.org/2000/svg"><path d="m49.824 48h-44.759c-1.03 0-1.779-0.978-1.51-1.973l10.166-27.871c0.184-0.682 0.803-1.156 1.51-1.156h44.759c1.03 0 1.51 0.984 1.51 1.973l-10.166 27.871c-0.184 0.682-0.803 1.156-1.51 1.156z" fill="#86b4d3"/><g transform="translate(3.5002 -4.5)"><path d="m0.001875 50.841 10.218-28.185c0.184-0.683 0.803-1.156 1.51-1.156h40.27v-7.268c0-0.957-0.776-1.732-1.732-1.732h-25.268l-5-7h-18.268c-0.956 0-1.732 0.775-1.732 1.732v42.728" fill="#b0cce0"/></g></svg>
